<svg width="100" height="100" viewBox="0 0 100 100" fill="none" xmlns="http://www.w3.org/2000/svg">
<path d="M42.875 16.0831L7.5833 74.9998C6.85567 76.2599 6.47066 77.6886 6.46659 79.1436C6.46251 80.5987 6.83951 82.0295 7.56008 83.2937C8.28064 84.5578 9.31965 85.6113 10.5737 86.3492C11.8278 87.0871 13.2533 87.4838 14.7083 87.4998H85.2916C86.7466 87.4838 88.1721 87.0871 89.4262 86.3492C90.6803 85.6113 91.7193 84.5578 92.4399 83.2937C93.1604 82.0295 93.5374 80.5987 93.5333 79.1436C93.5293 77.6886 93.1443 76.2599 92.4166 74.9998L57.125 16.0831C56.3822 14.8586 55.3363 13.8461 54.0883 13.1435C52.8403 12.4408 51.4322 12.0717 50 12.0717C48.5677 12.0717 47.1597 12.4408 45.9116 13.1435C44.6636 13.8461 43.6178 14.8586 42.875 16.0831V16.0831Z" stroke="white" stroke-width="8.33333" stroke-linecap="round" stroke-linejoin="round"/>
<path d="M50 37.5V54.1667" stroke="white" stroke-width="8.33333" stroke-linecap="round" stroke-linejoin="round"/>
<path d="M50 70.8334H50.0417" stroke="white" stroke-width="8.33333" stroke-linecap="round" stroke-linejoin="round"/>
</svg>
